<?xml version="1.0" encoding="utf-8"?>
<!-- Generator: Adobe Illustrator 18.1.1, SVG Export Plug-In . SVG Version: 6.00 Build 0)  -->
<svg version="1.1" id="图层_1" xmlns="http://www.w3.org/2000/svg" xmlns:xlink="http://www.w3.org/1999/xlink" x="0px" y="0px"
	 viewBox="-1317 1317.7 200.2 200" enable-background="new -1317 1317.7 200.2 200" xml:space="preserve">
<path fill="#8F9298" d="M-1132.9,1332.1h-29.2v-6.4c0.1-2.8-1.3-5.5-3.8-6.9c-2.5-1.5-5.5-1.5-8,0c-2.3,1.5-3.6,4.2-3.3,6.9v6.3
	h-79.3v-6.3c0.1-2.8-1.3-5.5-3.7-6.9c-3.9-2.2-8.8-0.9-11,3c-0.7,1.2-1.1,2.6-1.1,3.9v6.3h-28.6c-8.9,0-16.1,7.2-16.1,16.1
	c0,0.1,0,0.1,0,0.2v153.4c0,8.9,7.2,16.1,16.1,16.1c0,0,0,0,0,0h167.9c8.9,0.1,16.2-7,16.3-15.9c0-0.1,0-0.1,0-0.2v-153.4
	c0-8.9-7.2-16.1-16.1-16.1C-1132.8,1332.1-1132.9,1332.1-1132.9,1332.1z M-1272.2,1344.6v7.2c-0.1,3.3,1.5,6.4,4.2,8.3
	c2.3,1.7,5.5,1.7,7.8,0c2.6-2,3.9-5.1,3.7-8.3v-7.2h79.3v7.2c0,3.3,1.5,6.4,4.2,8.3c2.3,1.7,5.4,1.7,7.8,0c2.5-2,3.8-5.1,3.6-8.3
	v-7.2h32.5v37.6h-175.3v-37.6L-1272.2,1344.6z M-1129.2,1505.5h-175.3v-112.7h175.3V1505.5z"/>
<path opacity="0.5" fill="#8F9298" enable-background="new    " d="M-1271.1,1422h14.6c3.5-0.6,6.7,1.8,7.3,5.2
	c0.6,3.5-1.8,6.7-5.2,7.3c-0.7,0.1-1.4,0.1-2.1,0h-14.6c-3.7,0.3-7-2.5-7.3-6.3C-1278.1,1424.5-1274.8,1421.7-1271.1,1422z
	 M-1224.1,1422h14.6c3.5-0.6,6.7,1.8,7.3,5.2c0.6,3.5-1.8,6.7-5.2,7.3c-0.7,0.1-1.4,0.1-2.1,0h-14.6c-3.7,0.3-7-2.5-7.3-6.3
	C-1231.1,1424.5-1227.9,1421.7-1224.1,1422L-1224.1,1422z M-1177.1,1422h14.5c3.7-0.3,7,2.5,7.3,6.3c-0.3,3.7-3.6,6.5-7.3,6.3h-14.5
	c-3.7,0.3-7-2.5-7.3-6.3C-1184.1,1424.5-1180.8,1421.7-1177.1,1422L-1177.1,1422z M-1271.1,1463.7h14.8c3.5-0.4,6.6,2.1,7,5.5
	s-2.1,6.6-5.5,7c-0.5,0.1-1,0.1-1.4,0h-14.8c-3.5,0.6-6.7-1.8-7.3-5.2s1.8-6.7,5.2-7.3C-1272.5,1463.6-1271.8,1463.6-1271.1,1463.7z
	 M-1224.1,1463.7h14.8c3.5-0.4,6.6,2.1,7,5.5s-2.1,6.6-5.5,7c-0.5,0.1-1,0.1-1.4,0h-14.8c-3.5,0.6-6.7-1.8-7.3-5.2
	c-0.6-3.5,1.8-6.7,5.2-7.3C-1225.4,1463.6-1224.7,1463.6-1224.1,1463.7z"/>
</svg>
