<?xml version="1.0" encoding="utf-8"?>
<!-- Generator: Adobe Illustrator 18.1.1, SVG Export Plug-In . SVG Version: 6.00 Build 0)  -->
<svg version="1.1" id="图层_1" xmlns="http://www.w3.org/2000/svg" xmlns:xlink="http://www.w3.org/1999/xlink" x="0px" y="0px"
	 viewBox="-1317 1317.7 200 200" enable-background="new -1317 1317.7 200 200" xml:space="preserve">
<path fill="#E84565" d="M-1236,1341.5c7.9,0,14.3,6.4,14.3,14.3v42.9c0,7.9-6.4,14.3-14.3,14.3h-42.9c-7.9,0-14.3-6.4-14.3-14.3
	v-42.9c0-7.9,6.4-14.3,14.3-14.3l0,0H-1236z M-1278.9,1355.7v42.9h42.9v-42.9H-1278.9z M-1236,1422.4c7.9,0,14.3,6.4,14.3,14.3l0,0
	v42.9c0,7.9-6.4,14.3-14.3,14.3c0,0,0,0,0,0h-42.9c-7.9,0-14.3-6.4-14.3-14.3l0,0v-42.9c0-7.9,6.4-14.3,14.3-14.3c0,0,0,0,0,0H-1236
	z M-1278.9,1436.7v42.9h42.9v-42.9H-1278.9z M-1212.2,1353.4v14.3h69v-14.3H-1212.2z M-1212.2,1436.7v14.3h69v-14.3H-1212.2z
	 M-1212.2,1384.3v14.3h69v-14.3H-1212.2z M-1212.2,1467.7v14.3h69v-14.3H-1212.2z"/>
</svg>
