<?xml version="1.0" encoding="utf-8"?>
<!-- Generator: Adobe Illustrator 18.1.1, SVG Export Plug-In . SVG Version: 6.00 Build 0)  -->
<svg version="1.1" id="图层_1" xmlns="http://www.w3.org/2000/svg" xmlns:xlink="http://www.w3.org/1999/xlink" x="0px" y="0px"
	 viewBox="-1317 1317.7 200 200" enable-background="new -1317 1317.7 200 200" xml:space="preserve">
<path fill="#75787D" d="M-1217,1493.8c-2.7,0-5.1-0.8-7.2-2.6c-1.7-1.4-44.1-34.2-61-60.8c-5.6-8.8-13.4-20.7-13.4-37.7
	c0-28.3,21.1-51.2,46.9-51.2c13.2,0,25.7,6,34.7,16.5c8.9-10.6,21.3-16.5,34.6-16.5c25.9,0,46.9,23,46.9,51.2
	c0,16.6-7.2,28.1-13.2,37.3l-0.2,0.3c-16.9,26.6-59.3,59.5-61,60.8C-1211.9,1492.9-1214.3,1493.8-1217,1493.8L-1217,1493.8z
	 M-1251.7,1349.7c-21.4,0-38.8,19.3-38.8,43.1c0,14.5,6.6,24.9,12,33.3c16.2,25.4,57.4,57.4,59.2,58.8c0.7,0.5,1.4,0.8,2.2,0.8
	s1.5-0.3,2.2-0.8c1.7-1.3,43-33.4,59.2-58.8l0.2-0.3c5.5-8.8,11.8-18.7,11.8-33c0-23.7-17.4-43.1-38.8-43.1
	c-11.7,0-22.7,5.7-30,15.8l-1.2,1.7c-0.8,1-2,1.6-3.3,1.6s-2.6-0.6-3.3-1.6l-1.2-1.7C-1229,1355.5-1240.1,1349.7-1251.7,1349.7z"/>
</svg>
