<?xml version="1.0" encoding="utf-8"?>
<!-- Generator: Adobe Illustrator 18.1.1, SVG Export Plug-In . SVG Version: 6.00 Build 0)  -->
<svg version="1.1" id="图层_1" xmlns="http://www.w3.org/2000/svg" xmlns:xlink="http://www.w3.org/1999/xlink" x="0px" y="0px"
	 viewBox="0 0 2834.6 2834.6" enable-background="new 0 0 2834.6 2834.6" xml:space="preserve">
<path fill="#E8E8E8" d="M1418,2496.6c-38.3,0-72.3-11.3-102-36.9c-24.1-19.8-625-484.7-864.6-861.7
	c-79.4-124.7-189.9-293.4-189.9-534.3c0-401.1,299.1-725.7,664.7-725.7c187.1,0,364.3,85,491.8,233.9
	C1544.2,421.7,1719.9,338,1908.4,338c367.1,0,664.7,326,664.7,725.7c0,235.3-102,398.3-187.1,528.7l-2.8,4.3
	c-239.5,377-840.5,843.3-864.6,861.7C1490.3,2483.9,1456.3,2496.6,1418,2496.6L1418,2496.6z"/>
</svg>
